<svg height="802" width="2500" xmlns="http://www.w3.org/2000/svg" xmlns:xlink="http://www.w3.org/1999/xlink" viewBox="-0.010000000000005116 -0.03 305.43 97.95"><linearGradient id="b" gradientUnits="userSpaceOnUse" x1="302.104" x2="47.994" y1="99.623" y2="39.143"><stop offset="0" stop-color="#7d2ae7"/><stop offset=".77" stop-color="#7d2ae7"/><stop offset="1" stop-color="#7d2ae7" stop-opacity="0"/></linearGradient><linearGradient id="a"><stop offset="0" stop-color="#6420ff"/><stop offset="1" stop-color="#6420ff" stop-opacity="0"/></linearGradient><radialGradient id="c" cx="-845.572" cy="27.009" gradientTransform="matrix(420 -432 287.1025 279.12743 347542.61 -372723.723)" gradientUnits="userSpaceOnUse" r=".15" xlink:href="#a"/><radialGradient id="d" cx="-843.93" cy="26.012" gradientTransform="matrix(1168 104 -82.89013 930.91997 987875.733 63622.988)" gradientUnits="userSpaceOnUse" r=".15"><stop offset=".25" stop-color="#00c4cc"/><stop offset="1" stop-color="#00c4cc" stop-opacity="0"/></radialGradient><radialGradient id="e" cx="-845.227" cy="26.889" gradientTransform="matrix(588.50003 -473.99996 324.1088 402.40096 488825.82 -411362.899)" gradientUnits="userSpaceOnUse" r=".15" xlink:href="#a"/><radialGradient id="f" cx="-844.454" cy="27.094" gradientTransform="matrix(727.99996 -496.00006 339.14786 497.78145 605588.091 -432219.404)" gradientUnits="userSpaceOnUse" r=".15" xlink:href="#a"/><radialGradient id="g" cx="-844.248" cy="25.519" gradientTransform="matrix(1699.99998 376.00007 -461.14867 2084.98028 1447017.579 264243.99)" gradientUnits="userSpaceOnUse" r=".15"><stop offset="0" stop-color="#00c4cc" stop-opacity=".73"/><stop offset="0" stop-color="#00c4cc"/><stop offset="1" stop-color="#00c4cc" stop-opacity="0"/></radialGradient><path d="M303.3 66.97a1.34 1.34 0 0 0-1.24 1c-3.13 8.93-7.36 14.25-10.84 14.25-2 0-2.81-2.23-2.81-5.73 0-8.75 5.24-27.3 7.88-35.76.292-.88.46-1.795.5-2.72 0-2.46-1.34-3.67-4.67-3.67-3.59 0-7.45 1.4-11.21 8-1.3-5.8-5.22-8.34-10.71-8.34-6.34 0-12.46 4.08-17.5 10.69s-11 8.78-15.42 7.71c3.21-7.85 4.4-13.71 4.4-18.07 0-6.83-3.37-10.95-8.83-10.95-8.29 0-13.07 7.91-13.07 16.23 0 6.43 2.92 13 9.33 16.25-5.38 12.16-13.22 23.15-16.2 23.15-3.85 0-5-18.83-4.76-32.3.14-7.73.78-8.12.78-10.46 0-1.34-.87-2.26-4.37-2.26-8.15 0-10.67 6.9-11.06 14.83a39.07 39.07 0 0 1-1.4 8.9c-3.41 12.16-10.43 21.38-15 21.38-2.12 0-2.7-2.12-2.7-4.9 0-8.75 4.9-19.68 4.9-29 0-6.86-3-11.19-8.67-11.19-6.67 0-15.5 7.94-23.85 22.82 2.75-11.39 3.88-22.42-4.26-22.42a11 11 0 0 0-5.05 1.31 2.87 2.87 0 0 0-1.65 2.78c.78 12.13-9.77 43.19-19.78 43.19-1.82 0-2.7-2-2.7-5.15 0-8.77 5.22-27.27 7.85-35.75a10.05 10.05 0 0 0 .52-2.87c0-2.32-1.44-3.51-4.69-3.51-3.57 0-7.45 1.36-11.19 7.94-1.31-5.8-5.24-8.34-10.72-8.34-9 0-19 9.51-23.46 21.91-5.91 16.55-17.82 32.54-33.86 32.54-14.55 0-22.23-12.11-22.23-31.24 0-27.63 20.28-50.2 35.32-50.2 7.19 0 10.63 4.58 10.63 11.61 0 8.51-4.75 12.46-4.75 15.7 0 1 .82 2 2.46 2 6.54 0 14.23-7.68 14.23-18.16S64.92-.03 49.87-.03c-24.86 0-49.88 25-49.88 57.07 0 25.5 12.58 40.88 34.34 40.88 14.84 0 27.81-11.54 34.8-25 .79 11.16 5.86 17 13.59 17 6.87 0 12.43-4.09 16.68-11.29 1.63 7.53 6 11.21 11.61 11.21 6.46 0 11.87-4.09 17-11.7-.08 6 1.28 11.59 6.46 11.59 2.44 0 5.36-.57 5.88-2.7 5.45-22.54 18.92-40.94 23-40.94 1.22 0 1.56 1.18 1.56 2.57 0 6.12-4.32 18.68-4.32 26.69 0 8.66 3.68 14.39 11.29 14.39 8.43 0 17-10.32 22.71-25.41 1.79 14.1 5.65 25.47 11.7 25.47 7.42 0 20.6-15.62 28.59-32.16a17.24 17.24 0 0 0 12.35-2.9 42.62 42.62 0 0 0-3.05 15.53c0 15.35 7.33 19.65 13.64 19.65 6.86 0 12.42-4.09 16.68-11.29 1.4 6.49 5 11.19 11.59 11.19 10.32 0 19.29-10.55 19.29-19.21.04-2.28-.94-3.64-2.08-3.64zM89.03 81.42c-4.17 0-5.8-4.2-5.8-10.46 0-10.87 7.44-29 15.3-29 3.44 0 4.73 4 4.73 9 0 11.01-7.07 30.46-14.23 30.46zm142.8-32.45a16.55 16.55 0 0 1-3.39-10.58c0-4.43 1.62-8.17 3.56-8.17s2.54 1.91 2.54 4.57c-.01 4.44-1.6 10.93-2.71 14.18zm32.33 32.45c-4.17 0-5.8-4.83-5.8-10.46 0-10.49 7.44-29 15.36-29 3.44 0 4.66 4 4.66 9 0 11.01-6.95 30.46-14.22 30.46z" fill="url(#b)"/><path d="M303.3 66.97a1.34 1.34 0 0 0-1.24 1c-3.13 8.93-7.36 14.25-10.84 14.25-2 0-2.81-2.23-2.81-5.73 0-8.75 5.24-27.3 7.88-35.76.292-.88.46-1.795.5-2.72 0-2.46-1.34-3.67-4.67-3.67-3.59 0-7.45 1.4-11.21 8-1.3-5.8-5.22-8.34-10.71-8.34-6.34 0-12.46 4.08-17.5 10.69s-11 8.78-15.42 7.71c3.21-7.85 4.4-13.71 4.4-18.07 0-6.83-3.37-10.95-8.83-10.95-8.29 0-13.07 7.91-13.07 16.23 0 6.43 2.92 13 9.33 16.25-5.38 12.16-13.22 23.15-16.2 23.15-3.85 0-5-18.83-4.76-32.3.14-7.73.78-8.12.78-10.46 0-1.34-.87-2.26-4.37-2.26-8.15 0-10.67 6.9-11.06 14.83a39.07 39.07 0 0 1-1.4 8.9c-3.41 12.16-10.43 21.38-15 21.38-2.12 0-2.7-2.12-2.7-4.9 0-8.75 4.9-19.68 4.9-29 0-6.86-3-11.19-8.67-11.19-6.67 0-15.5 7.94-23.85 22.82 2.75-11.39 3.88-22.42-4.26-22.42a11 11 0 0 0-5.05 1.31 2.87 2.87 0 0 0-1.65 2.78c.78 12.13-9.77 43.19-19.78 43.19-1.82 0-2.7-2-2.7-5.15 0-8.77 5.22-27.27 7.85-35.75a10.05 10.05 0 0 0 .52-2.87c0-2.32-1.44-3.51-4.69-3.51-3.57 0-7.45 1.36-11.19 7.94-1.31-5.8-5.24-8.34-10.72-8.34-9 0-19 9.51-23.46 21.91-5.91 16.55-17.82 32.54-33.86 32.54-14.55 0-22.23-12.11-22.23-31.24 0-27.63 20.28-50.2 35.32-50.2 7.19 0 10.63 4.58 10.63 11.61 0 8.51-4.75 12.46-4.75 15.7 0 1 .82 2 2.46 2 6.54 0 14.23-7.68 14.23-18.16S64.92-.03 49.87-.03c-24.86 0-49.88 25-49.88 57.07 0 25.5 12.58 40.88 34.34 40.88 14.84 0 27.81-11.54 34.8-25 .79 11.16 5.86 17 13.59 17 6.87 0 12.43-4.09 16.68-11.29 1.63 7.53 6 11.21 11.61 11.21 6.46 0 11.87-4.09 17-11.7-.08 6 1.28 11.59 6.46 11.59 2.44 0 5.36-.57 5.88-2.7 5.45-22.54 18.92-40.94 23-40.94 1.22 0 1.56 1.18 1.56 2.57 0 6.12-4.32 18.68-4.32 26.69 0 8.66 3.68 14.39 11.29 14.39 8.43 0 17-10.32 22.71-25.41 1.79 14.1 5.65 25.47 11.7 25.47 7.42 0 20.6-15.62 28.59-32.16a17.24 17.24 0 0 0 12.35-2.9 42.62 42.62 0 0 0-3.05 15.53c0 15.35 7.33 19.65 13.64 19.65 6.86 0 12.42-4.09 16.68-11.29 1.4 6.49 5 11.19 11.59 11.19 10.32 0 19.29-10.55 19.29-19.21.04-2.28-.94-3.64-2.08-3.64zM89.03 81.42c-4.17 0-5.8-4.2-5.8-10.46 0-10.87 7.44-29 15.3-29 3.44 0 4.73 4 4.73 9 0 11.01-7.07 30.46-14.23 30.46zm142.8-32.45a16.55 16.55 0 0 1-3.39-10.58c0-4.43 1.62-8.17 3.56-8.17s2.54 1.91 2.54 4.57c-.01 4.44-1.6 10.93-2.71 14.18zm32.33 32.45c-4.17 0-5.8-4.83-5.8-10.46 0-10.49 7.44-29 15.36-29 3.44 0 4.66 4 4.66 9 0 11.01-6.95 30.46-14.22 30.46z" fill="url(#c)"/><path d="M303.3 66.97a1.34 1.34 0 0 0-1.24 1c-3.13 8.93-7.36 14.25-10.84 14.25-2 0-2.81-2.23-2.81-5.73 0-8.75 5.24-27.3 7.88-35.76.292-.88.46-1.795.5-2.72 0-2.46-1.34-3.67-4.67-3.67-3.59 0-7.45 1.4-11.21 8-1.3-5.8-5.22-8.34-10.71-8.34-6.34 0-12.46 4.08-17.5 10.69s-11 8.78-15.42 7.71c3.21-7.85 4.4-13.71 4.4-18.07 0-6.83-3.37-10.95-8.83-10.95-8.29 0-13.07 7.91-13.07 16.23 0 6.43 2.92 13 9.33 16.25-5.38 12.16-13.22 23.15-16.2 23.15-3.85 0-5-18.83-4.76-32.3.14-7.73.78-8.12.78-10.46 0-1.34-.87-2.26-4.37-2.26-8.15 0-10.67 6.9-11.06 14.83a39.07 39.07 0 0 1-1.4 8.9c-3.41 12.16-10.43 21.38-15 21.38-2.12 0-2.7-2.12-2.7-4.9 0-8.75 4.9-19.68 4.9-29 0-6.86-3-11.19-8.67-11.19-6.67 0-15.5 7.94-23.85 22.82 2.75-11.39 3.88-22.42-4.26-22.42a11 11 0 0 0-5.05 1.31 2.87 2.87 0 0 0-1.65 2.78c.78 12.13-9.77 43.19-19.78 43.19-1.82 0-2.7-2-2.7-5.15 0-8.77 5.22-27.27 7.85-35.75a10.05 10.05 0 0 0 .52-2.87c0-2.32-1.44-3.51-4.69-3.51-3.57 0-7.45 1.36-11.19 7.94-1.31-5.8-5.24-8.34-10.72-8.34-9 0-19 9.51-23.46 21.91-5.91 16.55-17.82 32.54-33.86 32.54-14.55 0-22.23-12.11-22.23-31.24 0-27.63 20.28-50.2 35.32-50.2 7.19 0 10.63 4.58 10.63 11.61 0 8.51-4.75 12.46-4.75 15.7 0 1 .82 2 2.46 2 6.54 0 14.23-7.68 14.23-18.16S64.92-.03 49.87-.03c-24.86 0-49.88 25-49.88 57.07 0 25.5 12.58 40.88 34.34 40.88 14.84 0 27.81-11.54 34.8-25 .79 11.16 5.86 17 13.59 17 6.87 0 12.43-4.09 16.68-11.29 1.63 7.53 6 11.21 11.61 11.21 6.46 0 11.87-4.09 17-11.7-.08 6 1.28 11.59 6.46 11.59 2.44 0 5.36-.57 5.88-2.7 5.45-22.54 18.92-40.94 23-40.94 1.22 0 1.56 1.18 1.56 2.57 0 6.12-4.32 18.68-4.32 26.69 0 8.66 3.68 14.39 11.29 14.39 8.43 0 17-10.32 22.71-25.41 1.79 14.1 5.65 25.47 11.7 25.47 7.42 0 20.6-15.62 28.59-32.16a17.24 17.24 0 0 0 12.35-2.9 42.62 42.62 0 0 0-3.05 15.53c0 15.35 7.33 19.65 13.64 19.65 6.86 0 12.42-4.09 16.68-11.29 1.4 6.49 5 11.19 11.59 11.19 10.32 0 19.29-10.55 19.29-19.21.04-2.28-.94-3.64-2.08-3.64zM89.03 81.42c-4.17 0-5.8-4.2-5.8-10.46 0-10.87 7.44-29 15.3-29 3.44 0 4.73 4 4.73 9 0 11.01-7.07 30.46-14.23 30.46zm142.8-32.45a16.55 16.55 0 0 1-3.39-10.58c0-4.43 1.62-8.17 3.56-8.17s2.54 1.91 2.54 4.57c-.01 4.44-1.6 10.93-2.71 14.18zm32.33 32.45c-4.17 0-5.8-4.83-5.8-10.46 0-10.49 7.44-29 15.36-29 3.44 0 4.66 4 4.66 9 0 11.01-6.95 30.46-14.22 30.46z" fill="url(#d)"/><path d="M303.3 66.97a1.34 1.34 0 0 0-1.24 1c-3.13 8.93-7.36 14.25-10.84 14.25-2 0-2.81-2.23-2.81-5.73 0-8.75 5.24-27.3 7.88-35.76.292-.88.46-1.795.5-2.72 0-2.46-1.34-3.67-4.67-3.67-3.59 0-7.45 1.4-11.21 8-1.3-5.8-5.22-8.34-10.71-8.34-6.34 0-12.46 4.08-17.5 10.69s-11 8.78-15.42 7.71c3.21-7.85 4.4-13.71 4.4-18.07 0-6.83-3.37-10.95-8.83-10.95-8.29 0-13.07 7.91-13.07 16.23 0 6.43 2.92 13 9.33 16.25-5.38 12.16-13.22 23.15-16.2 23.15-3.85 0-5-18.83-4.76-32.3.14-7.73.78-8.12.78-10.46 0-1.34-.87-2.26-4.37-2.26-8.15 0-10.67 6.9-11.06 14.83a39.07 39.07 0 0 1-1.4 8.9c-3.41 12.16-10.43 21.38-15 21.38-2.12 0-2.7-2.12-2.7-4.9 0-8.75 4.9-19.68 4.9-29 0-6.86-3-11.19-8.67-11.19-6.67 0-15.5 7.94-23.85 22.82 2.75-11.39 3.88-22.42-4.26-22.42a11 11 0 0 0-5.05 1.31 2.87 2.87 0 0 0-1.65 2.78c.78 12.13-9.77 43.19-19.78 43.19-1.82 0-2.7-2-2.7-5.15 0-8.77 5.22-27.27 7.85-35.75a10.05 10.05 0 0 0 .52-2.87c0-2.32-1.44-3.51-4.69-3.51-3.57 0-7.45 1.36-11.19 7.94-1.31-5.8-5.24-8.34-10.72-8.34-9 0-19 9.51-23.46 21.91-5.91 16.55-17.82 32.54-33.86 32.54-14.55 0-22.23-12.11-22.23-31.24 0-27.63 20.28-50.2 35.32-50.2 7.19 0 10.63 4.58 10.63 11.61 0 8.51-4.75 12.46-4.75 15.7 0 1 .82 2 2.46 2 6.54 0 14.23-7.68 14.23-18.16S64.92-.03 49.87-.03c-24.86 0-49.88 25-49.88 57.07 0 25.5 12.58 40.88 34.34 40.88 14.84 0 27.81-11.54 34.8-25 .79 11.16 5.86 17 13.59 17 6.87 0 12.43-4.09 16.68-11.29 1.63 7.53 6 11.21 11.61 11.21 6.46 0 11.87-4.09 17-11.7-.08 6 1.28 11.59 6.46 11.59 2.44 0 5.36-.57 5.88-2.7 5.45-22.54 18.92-40.94 23-40.94 1.22 0 1.56 1.18 1.56 2.57 0 6.12-4.32 18.68-4.32 26.69 0 8.66 3.68 14.39 11.29 14.39 8.43 0 17-10.32 22.71-25.41 1.79 14.1 5.65 25.47 11.7 25.47 7.42 0 20.6-15.62 28.59-32.16a17.24 17.24 0 0 0 12.35-2.9 42.62 42.62 0 0 0-3.05 15.53c0 15.35 7.33 19.65 13.64 19.65 6.86 0 12.42-4.09 16.68-11.29 1.4 6.49 5 11.19 11.59 11.19 10.32 0 19.29-10.55 19.29-19.21.04-2.28-.94-3.64-2.08-3.64zM89.03 81.42c-4.17 0-5.8-4.2-5.8-10.46 0-10.87 7.44-29 15.3-29 3.44 0 4.73 4 4.73 9 0 11.01-7.07 30.46-14.23 30.46zm142.8-32.45a16.55 16.55 0 0 1-3.39-10.58c0-4.43 1.62-8.17 3.56-8.17s2.54 1.91 2.54 4.57c-.01 4.44-1.6 10.93-2.71 14.18zm32.33 32.45c-4.17 0-5.8-4.83-5.8-10.46 0-10.49 7.44-29 15.36-29 3.44 0 4.66 4 4.66 9 0 11.01-6.95 30.46-14.22 30.46z" fill="url(#e)"/><path d="M303.3 66.97a1.34 1.34 0 0 0-1.24 1c-3.13 8.93-7.36 14.25-10.84 14.25-2 0-2.81-2.23-2.81-5.73 0-8.75 5.24-27.3 7.88-35.76.292-.88.46-1.795.5-2.72 0-2.46-1.34-3.67-4.67-3.67-3.59 0-7.45 1.4-11.21 8-1.3-5.8-5.22-8.34-10.71-8.34-6.34 0-12.46 4.08-17.5 10.69s-11 8.78-15.42 7.71c3.21-7.85 4.4-13.71 4.4-18.07 0-6.83-3.37-10.95-8.83-10.95-8.29 0-13.07 7.91-13.07 16.23 0 6.43 2.92 13 9.33 16.25-5.38 12.16-13.22 23.15-16.2 23.15-3.85 0-5-18.83-4.76-32.3.14-7.73.78-8.12.78-10.46 0-1.34-.87-2.26-4.37-2.26-8.15 0-10.67 6.9-11.06 14.83a39.07 39.07 0 0 1-1.4 8.9c-3.41 12.16-10.43 21.38-15 21.38-2.12 0-2.7-2.12-2.7-4.9 0-8.75 4.9-19.68 4.9-29 0-6.86-3-11.19-8.67-11.19-6.67 0-15.5 7.94-23.85 22.82 2.75-11.39 3.88-22.42-4.26-22.42a11 11 0 0 0-5.05 1.31 2.87 2.87 0 0 0-1.65 2.78c.78 12.13-9.77 43.19-19.78 43.19-1.82 0-2.7-2-2.7-5.15 0-8.77 5.22-27.27 7.85-35.75a10.05 10.05 0 0 0 .52-2.87c0-2.32-1.44-3.51-4.69-3.51-3.57 0-7.45 1.36-11.19 7.94-1.31-5.8-5.24-8.34-10.72-8.34-9 0-19 9.51-23.46 21.91-5.91 16.55-17.82 32.54-33.86 32.54-14.55 0-22.23-12.11-22.23-31.24 0-27.63 20.28-50.2 35.32-50.2 7.19 0 10.63 4.58 10.63 11.61 0 8.51-4.75 12.46-4.75 15.7 0 1 .82 2 2.46 2 6.54 0 14.23-7.68 14.23-18.16S64.92-.03 49.87-.03c-24.86 0-49.88 25-49.88 57.07 0 25.5 12.58 40.88 34.34 40.88 14.84 0 27.81-11.54 34.8-25 .79 11.16 5.86 17 13.59 17 6.87 0 12.43-4.09 16.68-11.29 1.63 7.53 6 11.21 11.61 11.21 6.46 0 11.87-4.09 17-11.7-.08 6 1.28 11.59 6.46 11.59 2.44 0 5.36-.57 5.88-2.7 5.45-22.54 18.92-40.94 23-40.94 1.22 0 1.56 1.18 1.56 2.57 0 6.12-4.32 18.68-4.32 26.69 0 8.66 3.68 14.39 11.29 14.39 8.43 0 17-10.32 22.71-25.41 1.79 14.1 5.65 25.47 11.7 25.47 7.42 0 20.6-15.62 28.59-32.16a17.24 17.24 0 0 0 12.35-2.9 42.62 42.62 0 0 0-3.05 15.53c0 15.35 7.33 19.65 13.64 19.65 6.86 0 12.42-4.09 16.68-11.29 1.4 6.49 5 11.19 11.59 11.19 10.32 0 19.29-10.55 19.29-19.21.04-2.28-.94-3.64-2.08-3.64zM89.03 81.42c-4.17 0-5.8-4.2-5.8-10.46 0-10.87 7.44-29 15.3-29 3.44 0 4.73 4 4.73 9 0 11.01-7.07 30.46-14.23 30.46zm142.8-32.45a16.55 16.55 0 0 1-3.39-10.58c0-4.43 1.62-8.17 3.56-8.17s2.54 1.91 2.54 4.57c-.01 4.44-1.6 10.93-2.71 14.18zm32.33 32.45c-4.17 0-5.8-4.83-5.8-10.46 0-10.49 7.44-29 15.36-29 3.44 0 4.66 4 4.66 9 0 11.01-6.95 30.46-14.22 30.46z" fill="url(#f)"/><path d="M303.3 66.97a1.34 1.34 0 0 0-1.24 1c-3.13 8.93-7.36 14.25-10.84 14.25-2 0-2.81-2.23-2.81-5.73 0-8.75 5.24-27.3 7.88-35.76.292-.88.46-1.795.5-2.72 0-2.46-1.34-3.67-4.67-3.67-3.59 0-7.45 1.4-11.21 8-1.3-5.8-5.22-8.34-10.71-8.34-6.34 0-12.46 4.08-17.5 10.69s-11 8.78-15.42 7.71c3.21-7.85 4.4-13.71 4.4-18.07 0-6.83-3.37-10.95-8.83-10.95-8.29 0-13.07 7.91-13.07 16.23 0 6.43 2.92 13 9.33 16.25-5.38 12.16-13.22 23.15-16.2 23.15-3.85 0-5-18.83-4.76-32.3.14-7.73.78-8.12.78-10.46 0-1.34-.87-2.26-4.37-2.26-8.15 0-10.67 6.9-11.06 14.83a39.07 39.07 0 0 1-1.4 8.9c-3.41 12.16-10.43 21.38-15 21.38-2.12 0-2.7-2.12-2.7-4.9 0-8.75 4.9-19.68 4.9-29 0-6.86-3-11.19-8.67-11.19-6.67 0-15.5 7.94-23.85 22.82 2.75-11.39 3.88-22.42-4.26-22.42a11 11 0 0 0-5.05 1.31 2.87 2.87 0 0 0-1.65 2.78c.78 12.13-9.77 43.19-19.78 43.19-1.82 0-2.7-2-2.7-5.15 0-8.77 5.22-27.27 7.85-35.75a10.05 10.05 0 0 0 .52-2.87c0-2.32-1.44-3.51-4.69-3.51-3.57 0-7.45 1.36-11.19 7.94-1.31-5.8-5.24-8.34-10.72-8.34-9 0-19 9.51-23.46 21.91-5.91 16.55-17.82 32.54-33.86 32.54-14.55 0-22.23-12.11-22.23-31.24 0-27.63 20.28-50.2 35.32-50.2 7.19 0 10.63 4.58 10.63 11.61 0 8.51-4.75 12.46-4.75 15.7 0 1 .82 2 2.46 2 6.54 0 14.23-7.68 14.23-18.16S64.92-.03 49.87-.03c-24.86 0-49.88 25-49.88 57.07 0 25.5 12.58 40.88 34.34 40.88 14.84 0 27.81-11.54 34.8-25 .79 11.16 5.86 17 13.59 17 6.87 0 12.43-4.09 16.68-11.29 1.63 7.53 6 11.21 11.61 11.21 6.46 0 11.87-4.09 17-11.7-.08 6 1.28 11.59 6.46 11.59 2.44 0 5.36-.57 5.88-2.7 5.45-22.54 18.92-40.94 23-40.94 1.22 0 1.56 1.18 1.56 2.57 0 6.12-4.32 18.68-4.32 26.69 0 8.66 3.68 14.39 11.29 14.39 8.43 0 17-10.32 22.71-25.41 1.79 14.1 5.65 25.47 11.7 25.47 7.42 0 20.6-15.62 28.59-32.16a17.24 17.24 0 0 0 12.35-2.9 42.62 42.62 0 0 0-3.05 15.53c0 15.35 7.33 19.65 13.64 19.65 6.86 0 12.42-4.09 16.68-11.29 1.4 6.49 5 11.19 11.59 11.19 10.32 0 19.29-10.55 19.29-19.21.04-2.28-.94-3.64-2.08-3.64zM89.03 81.42c-4.17 0-5.8-4.2-5.8-10.46 0-10.87 7.44-29 15.3-29 3.44 0 4.73 4 4.73 9 0 11.01-7.07 30.46-14.23 30.46zm142.8-32.45a16.55 16.55 0 0 1-3.39-10.58c0-4.43 1.62-8.17 3.56-8.17s2.54 1.91 2.54 4.57c-.01 4.44-1.6 10.93-2.71 14.18zm32.33 32.45c-4.17 0-5.8-4.83-5.8-10.46 0-10.49 7.44-29 15.36-29 3.44 0 4.66 4 4.66 9 0 11.01-6.95 30.46-14.22 30.46z" fill="url(#g)"/></svg>